#!OML:ASF I:\Actors\actors\Patient Classification 1\Patient 1\Session 1\Subject1.ASF
:FULLY-SPECIFIED
:DEGREES
493
root 0.799519 17.4825 9.87591 10.3753 -1.41012 -7.86756
lowerback -5.20122 4.19409 10.969
upperback -10.3835 5.50517 -1.96645
thorax -7.0048 1.87164 -8.22916
lowerneck -8.1865 -6.53787 -5.95021
upperneck 6.37351 -9.46023 14.856
head 4.27195 -4.1375 4.91525
rclavicle 4.49253e-014 -3.97569e-014
rhumerus 41.0849 20.2474 -43.6867
rradius 133.574
rwrist -6.52873
rhand 1.9224 -57.543
rfingers 7.12502
rthumb 27.4304 -85.566
lclavicle 4.49253e-014 -3.97569e-014
lhumerus -63.1628 50.028 29.7937
lradius 28.3809
lwrist -8.11518
lhand -36.9586 -27.8504
lfingers 7.12502
lthumb -10.0347 1.89038
rfemur -1.25743 28.5933 24.863
rtibia 1.06997
rfoot -14.8327 -30.0853
rtoes 7.4568
lfemur 9.07152 -47.944 -17.0754
ltibia -5.74758
lfoot -29.7561 55.8235
ltoes 17.5655
494
root 0.798831 17.4825 9.8773 10.3859 -1.46064 -7.88549
lowerback -5.21357 4.20139 10.9722
upperback -10.4062 5.51433 -1.9688
thorax -7.0209 1.87379 -8.2335
lowerneck -8.16137 -6.56447 -5.968
upperneck 6.27144 -9.48974 14.9266
head 4.24503 -4.15395 4.93883
rclavicle -3.12092e-014 1.59028e-015
rhumerus 41.0668 18.9449 -44.7381
rradius 133.344
rwrist -11.4415
rhand 3.46027 -54.6435
rfingers 7.12502
rthumb 28.9003 -82.4243
lclavicle -3.12092e-014 1.59028e-015
lhumerus -63.3724 50.1613 29.5577
lradius 28.3493
lwrist -8.16191
lhand -36.8303 -27.6597
lfingers 7.12502
lthumb -9.91094 2.08703
rfemur -1.28544 28.6399 24.8785
rtibia 1.10444
rfoot -14.8514 -30.0637
rtoes 7.24065
lfemur 9.15798 -48.0964 -17.1303
ltibia -5.75496
lfoot -30.1713 55.928
ltoes 17.8983
495
root 0.797939 17.4824 9.87864 10.3979 -1.50943 -7.88478
lowerback -5.23503 4.19945 10.9524
upperback -10.4214 5.50946 -1.97324
thorax -7.02737 1.8715 -8.2264
lowerneck -8.06028 -6.5876 -6.0544
upperneck 6.07223 -9.50248 15.0589
head 4.18089 -4.16806 4.99702
rclavicle 1.27222e-014 -6.36111e-015
rhumerus 41.1359 18.919 -44.7296
rradius 133.317
rwrist -11.3209
rhand 3.44271 -54.1322
rfingers 7.12502
rthumb 28.8835 -81.9159
lclavicle 1.27222e-014 -6.36111e-015
lhumerus -63.6541 50.3497 29.2177
lradius 28.2497
lwrist -8.25924
lhand -36.7989 -27.5304
lfingers 7.12502
lthumb -9.88067 2.21774
rfemur -1.32277 28.677 24.8648
rtibia 1.13319
rfoot -14.8529 -30.0676
rtoes 7.04191
lfemur 9.17977 -48.1318 -17.1461
ltibia -5.76396
lfoot -30.4535 55.9392
ltoes 18.1646
496
root 0.801858 17.4777 9.87811 10.2588 -1.44451 -8.30219
lowerback -5.05746 4.1657 11.4559
upperback -10.4074 5.49079 -1.87127
thorax -7.10216 1.82404 -8.41352
lowerneck -7.95147 -6.59867 -6.10132
upperneck 5.9214 -9.49908 15.0872
head 4.12057 -4.17676 5.01758
rclavicle 2.54444e-014 -1.59028e-014
rhumerus 41.237 18.9599 -44.7289
rradius 133.316
rwrist -11.2707
rhand 3.28848 -53.9746
rfingers 7.12502
rthumb 28.7362 -81.7834
lclavicle 2.54444e-014 -1.59028e-014
lhumerus -63.9292 50.4457 28.8853
lradius 28.1173
lwrist -8.25291
lhand -36.8631 -27.6178
lfingers 7.12502
lthumb -9.94255 2.12743
rfemur -1.11604 28.4642 25.4419
rtibia 1.10939
rfoot -14.7007 -29.9093
rtoes 6.85172
lfemur 9.39381 -47.8319 -16.7747
ltibia -5.8689
lfoot -30.0529 55.7468
ltoes 17.8266
497
root 0.809491 17.4683 9.87663 9.99362 -1.30548 -9.14135
lowerback -4.70944 4.13145 12.466
upperback -10.3652 5.50281 -1.66197
thorax -7.22379 1.75585 -8.7794
lowerneck -7.9879 -6.61507 -6.12439
upperneck 6.0077 -9.52604 15.0522
head 4.15464 -4.18748 5.00667
rclavicle -1.5704e-014 7.95139e-015
rhumerus 41.4155 18.9667 -44.6088
rradius 133.295
rwrist -11.3562
rhand 3.13591 -54.009
rfingers 7.12502
rthumb 28.5904 -81.8424
lclavicle -1.5704e-014 7.95139e-015
lhumerus -64.2308 50.4944 28.517
lradius 27.9637
lwrist -8.26415
lhand -36.7895 -27.713
lfingers 7.12502
lthumb -9.87156 2.03559
rfemur -0.722223 28.0744 26.5948
rtibia 1.09177
rfoot -14.5254 -29.578
rtoes 6.74356
lfemur 9.83417 -47.3623 -16.0412
ltibia -6.08232
lfoot -29.253 55.4984
ltoes 17.1501
498
root 0.808949 17.4678 9.87974 9.98744 -1.36258 -9.17865
lowerback -4.73435 4.1419 12.4764
upperback -10.3611 5.51295 -1.65514
thorax -7.2025 1.76218 -8.77501
lowerneck -8.0844 -6.63707 -6.13294
upperneck 6.12251 -9.56441 15.0212
head 4.20833 -4.19953 4.99178
rclavicle -1.39149e-014 -6.99722e-014
rhumerus 41.5273 18.9206 -44.4519
rradius 133.284
rwrist -11.3095
rhand 3.0247 -54.4035
rfingers 7.12502
rthumb 28.4842 -82.2548
lclavicle -1.39149e-014 -6.99722e-014
lhumerus -64.6119 50.6478 28.069
lradius 27.8531
lwrist -8.43171
lhand -36.7669 -27.6943
lfingers 7.12502
lthumb -9.84972 2.05527
rfemur -0.702427 28.1028 26.6458
rtibia 1.10147
rfoot -14.5664 -29.5206
rtoes 6.93947
lfemur 9.90892 -47.3942 -16.063
ltibia -6.08583
lfoot -29.3933 55.5668
ltoes 17.2866
499
root 0.80146 17.4762 9.88588 10.2332 -1.60243 -8.39715
lowerback -5.10781 4.17575 11.4905
upperback -10.4098 5.49718 -1.86206
thorax -7.07365 1.82671 -8.4185
lowerneck -8.06918 -6.65353 -6.1363
upperneck 6.05553 -9.57872 15.0235
head 4.18753 -4.20971 4.99251
rclavicle -2.10712e-014 2.54444e-014
rhumerus 41.5206 18.8202 -44.4843
rradius 133.292
rwrist -11.4523
rhand 3.07391 -54.588
rfingers 7.12502
rthumb 28.5312 -82.4314
lclavicle -2.10712e-014 2.54444e-014
lhumerus -64.9876 50.8112 27.6678
lradius 27.7984
lwrist -8.58418
lhand -36.8841 -27.6884
lfingers 7.12502
lthumb -9.96284 2.05586
rfemur -1.06131 28.4293 25.5581
rtibia 1.10627
rfoot -14.632 -29.6998
rtoes 7.00735
lfemur 9.59866 -47.8871 -16.8517
ltibia -5.86413
lfoot -30.3309 55.906
ltoes 17.9321
500
root 0.797834 17.4802 9.88917 10.3582 -1.75815 -7.98489
lowerback -5.28479 4.19122 10.9672
upperback -10.4491 5.49163 -1.98483
thorax -7.03226 1.85896 -8.24542
lowerneck -7.98915 -6.65175 -6.14667
upperneck 5.94351 -9.56651 15.0572
head 4.14141 -4.21013 5.00863
rclavicle 7.7526e-015 3.49861e-014
rhumerus 41.5257 18.7823 -44.5529
rradius 133.303
rwrist -11.6332
rhand 3.16934 -54.3675
rfingers 7.12502
rthumb 28.6224 -82.1956
lclavicle 7.7526e-015 3.49861e-014
lhumerus -65.545 50.9815 26.9663
lradius 27.6817
lwrist -8.33071
lhand -36.3302 -28.5836
lfingers 7.12502
lthumb -9.42837 1.18551
rfemur -1.25744 28.5522 24.9721
rtibia 1.10936
rfoot -14.6136 -29.7505
rtoes 6.90279
lfemur 9.45938 -48.1295 -17.2875
ltibia -5.75793
lfoot -30.8083 56.0962
ltoes 18.2657
501
root 0.797281 17.4803 9.88984 10.3487 -1.81348 -7.97289
lowerback -5.26047 4.20012 10.9312
upperback -10.4539 5.50547 -2.01137
thorax -7.04796 1.86608 -8.25584
lowerneck -7.95027 -6.63338 -6.09874
upperneck 5.88196 -9.54185 15.0773
head 4.11258 -4.19996 5.01058
rclavicle 6.08281e-014 2.94201e-014
rhumerus 41.541 18.751 -44.548
rradius 133.307
rwrist -11.775
rhand 3.05949 -54.1453
rfingers 7.12502
rthumb 28.5174 -81.991
lclavicle 6.08281e-014 2.94201e-014
lhumerus -66.4302 51.3176 25.7474
lradius 27.4959
lwrist -7.92905
lhand -35.0855 -30.2555
lfingers 7.12502
lthumb -8.22729 -0.435688
rfemur -1.25891 28.5707 24.9578
rtibia 1.12675
rfoot -14.6608 -29.7157
rtoes 7.01218
lfemur 9.5261 -48.1321 -17.3542
ltibia -5.77973
lfoot -30.9467 56.1344
ltoes 18.4338
502
root 0.796354 17.4808 9.88958 10.3292 -1.85914 -8.00048
lowerback -5.43547 4.17182 10.8537
upperback -10.2989 5.44025 -1.93329
thorax -6.79844 1.86559 -8.10601
lowerneck -7.96209 -6.57069 -6.03186
upperneck 5.67769 -9.43329 15.05
head 4.03708 -4.15344 5.00091
rclavicle -2.26615e-014 -4.69132e-014
rhumerus 41.8531 18.6835 -44.3726
rradius 133.301
rwrist -11.8272
rhand 2.85938 -53.9195
rfingers 7.12502
rthumb 28.3262 -81.7972
lclavicle -2.26615e-014 -4.69132e-014
lhumerus -67.3146 51.8948 24.6967
lradius 27.3661
lwrist -7.9373
lhand -34.3898 -30.9889
lfingers 7.12502
lthumb -7.55582 -1.14381
rfemur -1.25527 28.5874 24.9974
rtibia 1.15213
rfoot -14.6955 -29.6811
rtoes 7.13452
lfemur 9.62027 -48.2062 -17.4083
ltibia -5.77789
lfoot -31.1165 56.2304
ltoes 18.462
